<?xml version="1.0" standalone="no"?>
<svg xmlns:xlink="http://www.w3.org/1999/xlink" id="wave" style="transform:rotate(0deg); transition: 0.3s" viewBox="0 0 1440 330" version="1.1" xmlns="http://www.w3.org/2000/svg"><defs><linearGradient id="sw-gradient-0" x1="0" x2="0" y1="1" y2="0"><stop stop-color="rgba(3, 93, 159, 1)" offset="0%"/><stop stop-color="rgba(155, 37, 67, 1)" offset="100%"/></linearGradient></defs><path style="transform:translate(0, 0px); opacity:1" fill="url(#sw-gradient-0)" d="M0,33L34.3,33C68.6,33,137,33,206,55C274.3,77,343,121,411,165C480,209,549,253,617,264C685.7,275,754,253,823,242C891.4,231,960,231,1029,214.5C1097.1,198,1166,165,1234,143C1302.9,121,1371,110,1440,126.5C1508.6,143,1577,187,1646,192.5C1714.3,198,1783,165,1851,148.5C1920,132,1989,132,2057,115.5C2125.7,99,2194,66,2263,55C2331.4,44,2400,55,2469,71.5C2537.1,88,2606,110,2674,121C2742.9,132,2811,132,2880,154C2948.6,176,3017,220,3086,225.5C3154.3,231,3223,198,3291,192.5C3360,187,3429,209,3497,220C3565.7,231,3634,231,3703,220C3771.4,209,3840,187,3909,181.5C3977.1,176,4046,187,4114,209C4182.9,231,4251,264,4320,269.5C4388.6,275,4457,253,4526,247.5C4594.3,242,4663,253,4731,258.5C4800,264,4869,264,4903,264L4937.1,264L4937.1,330L4902.9,330C4868.6,330,4800,330,4731,330C4662.9,330,4594,330,4526,330C4457.1,330,4389,330,4320,330C4251.4,330,4183,330,4114,330C4045.7,330,3977,330,3909,330C3840,330,3771,330,3703,330C3634.3,330,3566,330,3497,330C3428.6,330,3360,330,3291,330C3222.9,330,3154,330,3086,330C3017.1,330,2949,330,2880,330C2811.4,330,2743,330,2674,330C2605.7,330,2537,330,2469,330C2400,330,2331,330,2263,330C2194.3,330,2126,330,2057,330C1988.6,330,1920,330,1851,330C1782.9,330,1714,330,1646,330C1577.1,330,1509,330,1440,330C1371.4,330,1303,330,1234,330C1165.7,330,1097,330,1029,330C960,330,891,330,823,330C754.3,330,686,330,617,330C548.6,330,480,330,411,330C342.9,330,274,330,206,330C137.1,330,69,330,34,330L0,330Z"/></svg>